<?xml version="1.0" encoding="UTF-8"?>
<svg version="1.1" xmlns="http://www.w3.org/2000/svg" width="1024" height="1024">
<path d="M0 0 C337.92 0 675.84 0 1024 0 C1024 337.92 1024 675.84 1024 1024 C686.08 1024 348.16 1024 0 1024 C0 686.08 0 348.16 0 0 Z " fill="#F7F2EA" transform="translate(0,0)"/>
<path d="M0 0 C0.62455078 0.47147461 1.24910156 0.94294922 1.89257812 1.42871094 C10.69791287 8.12057537 19.07517192 15.273068 27.37451172 22.57861328 C28.8120326 23.83563439 30.26616354 25.07360495 31.72265625 26.30859375 C32.45355469 26.92863281 33.18445313 27.54867187 33.9375 28.1875 C34.84822266 28.95126953 34.84822266 28.95126953 35.77734375 29.73046875 C37 31 37 31 37 33 C37.55558594 33.21914062 38.11117187 33.43828125 38.68359375 33.6640625 C41.76646839 35.44204417 43.6956908 37.71887539 46.0625 40.375 C47.0426267 41.46905652 48.02310517 42.56279801 49.00390625 43.65625 C49.50164551 44.21441406 49.99938477 44.77257812 50.51220703 45.34765625 C51.91567701 46.90635084 53.33972698 48.44157006 54.77734375 49.96875 C61.65315559 57.30821055 67.93130563 64.98311682 74 73 C74.45375 73.59683594 74.9075 74.19367188 75.375 74.80859375 C102.44138394 110.56390208 121.15151107 150.32881119 135.4375 192.6875 C136.03884766 194.45661743 136.03884766 194.45661743 136.65234375 196.26147461 C141.51566984 210.98392102 144.5964487 226.03695836 147.125 241.3125 C147.31826874 242.4791066 147.31826874 242.4791066 147.51544189 243.66928101 C149.92978938 258.41486236 151.54580775 273.05139765 152 288 C152.02191406 288.71073669 152.04382813 289.42147339 152.06640625 290.15374756 C152.75042465 313.45123808 151.64280775 336.17316784 148.50390625 359.26660156 C148.0779154 362.42273141 147.68579686 365.57953355 147.3125 368.7421875 C143.5488559 398.94936734 133.28328758 430.33821436 120.06298828 457.76953125 C118.87166584 460.26928361 117.73073584 462.78934739 116.58984375 465.3125 C95.28990664 511.83815091 62.13510979 556.79027655 23 590 C22.1028125 590.78632812 21.205625 591.57265625 20.28125 592.3828125 C-3.49640486 613.08603665 -30.29577313 630.48138582 -58.9375 643.625 C-59.89188965 644.06352295 -60.8462793 644.5020459 -61.82958984 644.95385742 C-62.71984863 645.3532251 -63.61010742 645.75259277 -64.52734375 646.1640625 C-65.31874756 646.51936035 -66.11015137 646.8746582 -66.92553711 647.24072266 C-69 648 -69 648 -72 648 C-72.08636719 647.14019531 -72.17273438 646.28039062 -72.26171875 645.39453125 C-73.83404456 632.16679942 -77.74192504 621.568026 -86 611 C-86.763125 609.9275 -87.52625 608.855 -88.3125 607.75 C-100.01945962 595.77078551 -119.1945941 590.81456277 -135.44372559 590.50720215 C-136.49999146 590.50095825 -137.55625732 590.49471436 -138.64453125 590.48828125 C-140.15823303 590.46332581 -140.15823303 590.46332581 -141.70251465 590.43786621 C-145.40563979 590.38083928 -149.10910601 590.34800901 -152.8125 590.3125 C-161.124375 590.209375 -169.43625 590.10625 -178 590 C-178 572.18 -178 554.36 -178 536 C-169.75 533.69 -161.5 531.38 -153 529 C-114.00114173 515.59414247 -77.29091849 493.37844416 -51.27734375 460.828125 C-49.82206495 459.0208834 -48.33741129 457.23665987 -46.81640625 455.484375 C-39.78428909 447.31157574 -34.36543061 438.31316613 -29 429 C-28.59749023 428.30632324 -28.19498047 427.61264648 -27.78027344 426.89794922 C-12.02716755 399.44574832 -0.89638228 366.32686035 -0.82299805 334.5222168 C-0.81642685 333.27904694 -0.80985565 332.03587708 -0.80308533 330.7550354 C-0.78342153 326.65309399 -0.77169783 322.55119151 -0.76171875 318.44921875 C-0.75766677 317.03073419 -0.75354973 315.61224982 -0.74936867 314.19376564 C-0.73034875 307.52918378 -0.71610905 300.86461279 -0.7077567 294.20000905 C-0.69798515 286.53207038 -0.67165456 278.86442043 -0.63125581 271.19658345 C-0.60101828 265.25153454 -0.58628077 259.30656809 -0.58297569 253.36144382 C-0.58063469 249.81870423 -0.57179859 246.27627422 -0.54651451 242.73361778 C-0.51873242 238.77764172 -0.52308826 234.82204131 -0.5300293 230.8659668 C-0.51721924 229.7066716 -0.50440918 228.5473764 -0.49121094 227.35295105 C-0.54441305 219.00882335 -1.89804022 211.89960658 -7.1875 205.25 C-19.34837001 195.52130399 -31.13407785 190.16716915 -46.87597656 191.64404297 C-52.1661969 192.53061093 -56.53496782 195.17458619 -61 198 C-62.32840762 198.67642842 -63.66099383 199.34480178 -65 200 C-65.00808685 199.10623154 -65.01617371 198.21246307 -65.02450562 197.29161072 C-65.10294645 188.8049525 -65.19037941 180.31844237 -65.28752708 171.83197689 C-65.33714637 167.47061686 -65.38347467 163.10927712 -65.421875 158.74780273 C-65.45916795 154.52662837 -65.50563671 150.30563969 -65.55806351 146.08462715 C-65.5763769 144.48660147 -65.59156653 142.88853636 -65.60334396 141.29044914 C-65.93437864 97.86286831 -81.72008147 61.65152502 -111.375 30.3125 C-116.50042603 25.38140292 -122.26566627 21.1862216 -128 17 C-128.55655273 16.5884668 -129.11310547 16.17693359 -129.68652344 15.75292969 C-157.69402125 -4.73599521 -190.55278252 -14.22140423 -224.9375 -14.25 C-225.66888184 -14.25067474 -226.40026367 -14.25134949 -227.15380859 -14.25204468 C-238.66222375 -14.23521491 -249.77390186 -13.69801452 -261 -11 C-261.68803711 -10.83902832 -262.37607422 -10.67805664 -263.08496094 -10.51220703 C-291.44721757 -3.62989721 -315.95313538 11.079389 -337 31 C-338.15628906 32.09441406 -338.15628906 32.09441406 -339.3359375 33.2109375 C-349.11049899 42.71861676 -356.35502557 53.18293813 -363 65 C-363.91265625 66.59908203 -363.91265625 66.59908203 -364.84375 68.23046875 C-368.64623708 75.32556396 -371.52120195 82.66560134 -374.1875 90.25 C-374.50855713 91.12197021 -374.82961426 91.99394043 -375.16040039 92.89233398 C-382.72493915 115.39053463 -382.64544926 139.32089539 -382.73822021 162.77105713 C-382.75818981 166.76156163 -382.80010545 170.75183959 -382.83984375 174.7421875 C-382.91397944 182.49472901 -382.96496356 190.24717227 -383 198 C-386.54790108 196.59799785 -389.99173015 195.07485163 -393.4375 193.4375 C-397.33674763 191.66511472 -400.68339537 190.28777364 -405 190 C-406.19625 189.896875 -407.3925 189.79375 -408.625 189.6875 C-414.42013157 189.77597529 -419.66477231 191.90451005 -425 194 C-425.89460937 194.350625 -426.78921875 194.70125 -427.7109375 195.0625 C-436.82343871 199.100039 -442.58348274 205.78624227 -446.30859375 214.95703125 C-447.59237134 218.75034018 -448.12784686 222.0552511 -448.14717102 226.07173157 C-448.15432632 227.0957608 -448.16148163 228.11979004 -448.16885376 229.17485046 C-448.17154266 230.29317764 -448.17423157 231.41150482 -448.17700195 232.5637207 C-448.18685875 234.33797424 -448.18685875 234.33797424 -448.19691467 236.14807129 C-448.21666378 240.07396807 -448.22833185 243.99985136 -448.23828125 247.92578125 C-448.24233303 249.28607897 -448.24645008 250.64637649 -448.25063133 252.00667381 C-448.26969752 258.41553729 -448.28391182 264.82438933 -448.2922433 271.23327571 C-448.30194776 278.57397935 -448.32808044 285.91437596 -448.36874419 293.2549718 C-448.39923262 298.95982554 -448.41374359 304.66459315 -448.41702431 310.36952657 C-448.41934285 313.76021958 -448.42994396 317.15032926 -448.45348549 320.54097939 C-448.58734364 341.12126471 -447.02869705 360.81531871 -440.875 380.5625 C-440.62363281 381.41005859 -440.37226563 382.25761719 -440.11328125 383.13085938 C-439.08160694 386.5850778 -437.99822992 390.00513969 -436.82421875 393.4140625 C-435.71368421 396.89829883 -435.83445814 398.50337443 -437 402 C-437.93936918 403.2801769 -438.9259196 404.52608315 -439.9375 405.75 C-466.33303598 437.95689884 -474.2405125 485.9068239 -470.71142578 526.30322266 C-467.7310489 553.93471675 -459.08080165 579.73174553 -447.03125 604.6640625 C-446 607 -446 607 -446 609 C-452.3373142 606.17165213 -457.61872741 601.31349022 -463 597 C-463.80147461 596.36167236 -463.80147461 596.36167236 -464.61914062 595.71044922 C-474.48259929 587.75947992 -483.40746781 578.8025148 -492.375 569.875 C-492.98086945 569.27439758 -493.58673889 568.67379517 -494.21096802 568.05499268 C-501.61244819 560.70324909 -508.56004749 553.22658257 -515 545 C-516.16074153 543.56322269 -517.32215659 542.12698916 -518.484375 540.69140625 C-580.42953284 462.8385158 -607.1873996 364.35129788 -598.0925293 257.04663086 C-592.48360751 212.2752017 -578.25341764 170.17591916 -558 130 C-557.54125488 129.08138184 -557.08250977 128.16276367 -556.60986328 127.21630859 C-546.80243224 107.65442147 -535.60319509 89.15862478 -522 72 C-521.20311768 70.98897217 -521.20311768 70.98897217 -520.39013672 69.95751953 C-510.24736314 57.13370393 -499.34324074 45.27181346 -487.8125 33.6875 C-486.96872803 32.83897461 -486.12495605 31.99044922 -485.25561523 31.11621094 C-480.33124755 26.20490011 -475.3069384 21.49463129 -470 17 C-469.36457275 16.45786865 -468.72914551 15.9157373 -468.07446289 15.35717773 C-447.5899696 -2.01072598 -425.63854993 -17.08598939 -402.02783203 -29.89355469 C-399.96565322 -31.01874062 -397.91875314 -32.16895272 -395.87109375 -33.3203125 C-314.33551245 -78.44888255 -216.35689323 -87.80213697 0 0 Z " fill="#FE8C08" transform="translate(736,197)"/>
<path d="M0 0 C1.26457031 0.2784375 2.52914062 0.556875 3.83203125 0.84375 C26.77477433 6.41727502 45.33480967 17.63352579 63 33 C63.77988281 33.67546875 64.55976562 34.3509375 65.36328125 35.046875 C78.42372262 47.26906858 88.45641942 63.73266803 94.8125 80.3125 C95.0906958 81.02188721 95.3688916 81.73127441 95.65551758 82.4621582 C101.94783482 99.84030028 101.42369686 117.88565927 101.33693647 136.07963848 C101.32190148 139.91622435 101.32432062 143.75280665 101.32437134 147.5894165 C101.32157729 154.94799769 101.30241875 162.30644017 101.27610624 169.66497159 C101.25504925 175.57131981 101.238891 181.47766136 101.22613525 187.3840332 C101.18799804 204.7721972 101.13351634 222.16020671 101.05926299 239.54825401 C101.01288269 250.47999802 100.98773904 261.41152368 100.984375 272.34337997 C100.98114434 279.70121894 100.95895178 287.05874464 100.91329956 294.41644669 C100.88928512 298.28839039 100.87300896 302.15983817 100.88098145 306.03186035 C100.93403432 341.17913958 90.45596574 367.65148076 66 393 C65.27167969 393.79148437 64.54335938 394.58296875 63.79296875 395.3984375 C53.35832082 406.43322289 40.73272735 413.83355317 27 420 C25.95585938 420.47179687 24.91171875 420.94359375 23.8359375 421.4296875 C-10.16439306 435.57452786 -51.07804073 434.96226574 -85 421 C-101.32661642 414.00944874 -115.32412594 404.36764612 -128 392 C-128.64195312 391.41992188 -129.28390625 390.83984375 -129.9453125 390.2421875 C-144.38573816 376.87639817 -154.49633501 356.95304825 -159 338 C-159.25880085 336.99557594 -159.25880085 336.99557594 -159.52283001 335.97086048 C-161.75547135 325.85956392 -161.28809224 315.52216594 -161.2746582 305.22729492 C-161.27901042 303.02181323 -161.28419526 300.81633306 -161.29014587 298.6108551 C-161.30349274 292.64379748 -161.30411931 286.67680336 -161.30158257 280.70973372 C-161.30050986 275.7174718 -161.30540394 270.72522257 -161.310188 265.73296338 C-161.32190098 253.27645059 -161.32106666 240.81996597 -161.31463119 228.36345217 C-161.30946495 217.57447415 -161.32071366 206.7855865 -161.33972941 195.99662634 C-161.35915641 184.88818233 -161.3670646 173.77977498 -161.36360615 162.67131311 C-161.36179829 156.44693711 -161.36437975 150.22264388 -161.37832069 143.99828148 C-161.39094781 138.14179562 -161.38890881 132.28548985 -161.37590981 126.42900658 C-161.37355504 124.28856341 -161.37623891 122.14810738 -161.38453293 120.00767899 C-161.50493352 86.5011056 -149.37786916 59.09596071 -126 35 C-93.18275751 2.06760929 -45.04320302 -10.37480576 0 0 Z " fill="#FE8D07" transform="translate(542,213)"/>
<path d="M0 0 C2.28926241 2.28926241 3.02304817 4.12700365 4.25 7.1171875 C4.68884521 8.18557861 5.12769043 9.25396973 5.57983398 10.35473633 C6.04848877 11.51642334 6.51714355 12.67811035 7 13.875 C7.48476807 15.07213623 7.96953613 16.26927246 8.46899414 17.50268555 C11.97043085 26.20883905 15.26834274 34.97949606 18.4375 43.8125 C19.03788086 45.47998291 19.03788086 45.47998291 19.65039062 47.18115234 C39.02347976 101.97628515 42.28922782 161.98866296 34.50390625 219.26660156 C34.0779154 222.42273141 33.68579686 225.57953355 33.3125 228.7421875 C29.5488559 258.94936734 19.28328758 290.33821436 6.06298828 317.76953125 C4.87166584 320.26928361 3.73073584 322.78934739 2.58984375 325.3125 C-18.71009336 371.83815091 -51.86489021 416.79027655 -91 450 C-91.8971875 450.78632812 -92.794375 451.57265625 -93.71875 452.3828125 C-117.49640486 473.08603665 -144.29577313 490.48138582 -172.9375 503.625 C-174.36908447 504.28278442 -174.36908447 504.28278442 -175.82958984 504.95385742 C-176.71984863 505.3532251 -177.61010742 505.75259277 -178.52734375 506.1640625 C-179.71444946 506.69700928 -179.71444946 506.69700928 -180.92553711 507.24072266 C-183 508 -183 508 -186 508 C-186.08636719 507.14019531 -186.17273438 506.28039062 -186.26171875 505.39453125 C-187.83404456 492.16679942 -191.74192504 481.568026 -200 471 C-200.763125 469.9275 -201.52625 468.855 -202.3125 467.75 C-214.01945962 455.77078551 -233.1945941 450.81456277 -249.44372559 450.50720215 C-250.49999146 450.50095825 -251.55625732 450.49471436 -252.64453125 450.48828125 C-254.15823303 450.46332581 -254.15823303 450.46332581 -255.70251465 450.43786621 C-259.40563979 450.38083928 -263.10910601 450.34800901 -266.8125 450.3125 C-275.124375 450.209375 -283.43625 450.10625 -292 450 C-292 432.18 -292 414.36 -292 396 C-283.75 393.69 -275.5 391.38 -267 389 C-228.00114173 375.59414247 -191.29091849 353.37844416 -165.27734375 320.828125 C-163.82206495 319.0208834 -162.33741129 317.23665987 -160.81640625 315.484375 C-153.78428909 307.31157574 -148.36543061 298.31316613 -143 289 C-142.59749023 288.30632324 -142.19498047 287.61264648 -141.78027344 286.89794922 C-128.65172594 264.01944348 -117.05687568 235.11699959 -115.68359375 208.53515625 C-114.75250042 194.07617783 -114.75250042 194.07617783 -111.67285156 190.42773438 C-108.19916986 187.84099517 -104.20040679 186.48132414 -100.18066406 184.95947266 C-96.18760893 183.20256416 -92.76169769 180.62303917 -89.25 178.0625 C-88.52594971 177.53914062 -87.80189941 177.01578125 -87.0559082 176.4765625 C-85.02711755 174.99754006 -83.01135968 173.50260709 -81 172 C-80.04738281 171.29488281 -79.09476563 170.58976563 -78.11328125 169.86328125 C-59.726031 155.53079981 -45.05425913 137.81551018 -33 118 C-32.62488281 117.39349609 -32.24976563 116.78699219 -31.86328125 116.16210938 C-10.83674077 81.89530705 -3.20989601 39.51042735 0 0 Z " fill="#A2309A" transform="translate(850,337)"/>
<path d="M0 0 C5.78087982 2.80600009 10.16313933 8.75596616 12.98828125 14.40625 C13.0956985 17.4325997 13.14246422 20.43689837 13.14599609 23.46386719 C13.15107681 24.40417786 13.15615753 25.34448853 13.16139221 26.31329346 C13.17211758 28.36380828 13.1807292 30.41433498 13.18751144 32.46486664 C13.19931884 35.73080974 13.21878622 38.99662169 13.2406311 42.26251221 C13.302116 51.55224083 13.35588072 60.84196215 13.38964844 70.13183594 C13.41085771 75.81422045 13.44638437 81.49637555 13.49040604 87.17862701 C13.50438458 89.32629908 13.51324646 91.47401184 13.51646042 93.62172699 C13.54830112 112.8967715 14.61556795 131.99757462 21.17578125 150.28125 C21.5730542 151.42126465 21.97032715 152.5612793 22.37963867 153.73583984 C30.08371096 175.33056467 41.89834176 193.10397214 57.98828125 209.40625 C58.80401611 210.25485596 58.80401611 210.25485596 59.63623047 211.12060547 C63.65477996 215.24748991 67.86066572 218.85594954 72.48828125 222.28125 C73.18187744 222.7959082 73.87547363 223.31056641 74.59008789 223.84082031 C112.92539362 251.86495078 157.7623002 261.19188653 204.53515625 254.3125 C246.33285622 247.61100284 284.07175828 224.421155 308.96459961 190.21337891 C321.55259271 172.50022684 329.14462802 153.50639742 333.98828125 132.40625 C334.17055267 131.63913193 334.3528241 130.87201385 334.5406189 130.08164978 C336.53518717 120.18370138 336.25356648 110.20176808 336.23211098 100.1522007 C336.2264651 96.74194718 336.23576046 93.33202711 336.24931335 89.92179871 C336.28623465 80.23438879 336.30496175 70.54709767 336.29370117 60.85961914 C336.28783936 54.9128256 336.3061531 48.96650807 336.33959007 43.01981163 C336.34751932 40.7636924 336.34630091 38.50752096 336.33556557 36.25141335 C336.32118279 33.09522494 336.3375646 29.94053048 336.3605957 26.78442383 C336.34882797 25.86315704 336.33706024 24.94189026 336.32493591 23.9927063 C336.42997421 16.62052794 338.6709228 10.93282537 343.76121998 5.52149677 C348.23285351 1.35023876 352.34364518 -0.40484742 358.48828125 -0.84375 C365.12935384 -0.36938767 368.58796805 1.37732063 372.98828125 6.40625 C374.18056001 8.79080752 374.11659864 10.25003025 374.12199402 12.91166687 C374.126259 13.86036652 374.13052399 14.80906616 374.13491821 15.78651428 C374.13446503 16.83109299 374.13401184 17.87567169 374.13354492 18.9519043 C374.13858284 20.59869171 374.13858284 20.59869171 374.14372253 22.27874756 C374.15326376 25.92933265 374.15517798 29.57987194 374.15625 33.23046875 C374.15946306 35.77000447 374.16282717 38.30953999 374.16633606 40.84907532 C374.17233712 46.18820702 374.174218 51.52732165 374.17358398 56.86645508 C374.17298672 63.00330971 374.1834656 69.14007543 374.19932765 75.27690762 C374.21409434 81.20461995 374.21756873 87.1323058 374.21697426 93.06003761 C374.21814764 95.56799492 374.22253301 98.07595301 374.23030663 100.58389854 C374.27927128 118.03038708 373.65276035 134.05641496 368.73828125 150.90625 C368.42818115 151.98575928 368.11808105 153.06526855 367.79858398 154.17749023 C359.82701379 181.36154334 346.34251416 204.96580024 327.98828125 226.40625 C327.20582031 227.33179688 326.42335938 228.25734375 325.6171875 229.2109375 C297.34326745 261.6870365 255.64230092 285.1451095 212.98828125 291.40625 C207.70828125 291.73625 202.42828125 292.06625 196.98828125 292.40625 C196.98828125 326.72625 196.98828125 361.04625 196.98828125 396.40625 C219.34993002 396.24852386 219.34993002 396.24852386 241.71118164 396.04589844 C246.08679199 396.02783203 246.08679199 396.02783203 248.15061951 396.0244751 C249.55834549 396.01842821 250.96605397 396.00456477 252.37364197 395.98394775 C267.12800541 395.77909617 281.61109429 397.42236669 292.7578125 408.1015625 C299.34104767 415.24541381 300.58284032 421.4882642 300.328125 431.0859375 C299.8454467 435.80176001 299.11254623 437.81334527 295.98828125 441.40625 C289.65157114 445.53722399 283.84715112 446.55506677 276.36726379 446.55342102 C275.47604708 446.55709771 274.58483036 446.5607744 273.66660708 446.5645625 C270.66811314 446.57561134 267.66965384 446.57944522 264.67114258 446.58325195 C262.52607106 446.5895157 260.38100063 446.59616243 258.2359314 446.60316467 C252.39898496 446.6205827 246.56204672 446.63112868 240.72508073 446.6393702 C237.07915177 446.64451877 233.43322536 446.65059457 229.7872982 446.65688133 C218.38242165 446.67593584 206.97755159 446.69016631 195.57266217 446.6984933 C182.40332831 446.708267 169.23416247 446.73458904 156.06488782 446.77499419 C145.88898888 446.80514488 135.71313813 446.8199612 125.53719538 446.82327431 C119.45816549 446.82562601 113.37931504 446.83460227 107.30033302 446.85973549 C101.580194 446.88300266 95.86035275 446.88725472 90.14017868 446.87697411 C88.04236422 446.87647831 85.94453518 446.88281165 83.84676552 446.89653015 C80.97889283 446.91423319 78.11209061 446.90715046 75.24421692 446.89399719 C74.00406404 446.91045106 74.00406404 446.91045106 72.73885757 446.92723733 C67.06369417 446.8645583 62.73178692 445.5850724 57.98828125 442.40625 C52.48585974 436.4805653 52.48870955 431.25821837 52.6484375 423.53515625 C53.09253762 415.42894701 57.24306365 409.27209594 63.1015625 403.87109375 C70.32261725 398.26468478 78.60451118 396.14863189 87.66772461 396.17919922 C88.41198228 396.17895815 89.15623995 396.17871708 89.92305088 396.1784687 C92.30820152 396.17994951 94.69303102 396.19512492 97.078125 396.2109375 C98.56026052 396.21388177 100.04239812 396.21591984 101.52453613 396.21704102 C106.99164976 396.22748386 112.45871873 396.25540641 117.92578125 396.28125 C130.15640625 396.3225 142.38703125 396.36375 154.98828125 396.40625 C154.98828125 362.41625 154.98828125 328.42625 154.98828125 293.40625 C149.70828125 293.07625 144.42828125 292.74625 138.98828125 292.40625 C135.55340352 291.84050543 132.33800639 291.25213315 128.98828125 290.40625 C127.69241089 290.08684448 127.69241089 290.08684448 126.37036133 289.76098633 C109.50888805 285.38659716 93.26236534 278.74588328 77.98828125 270.40625 C77.38338867 270.08301758 76.77849609 269.75978516 76.15527344 269.42675781 C67.52561073 264.8012586 59.65248521 259.50206297 51.98828125 253.40625 C50.61736328 252.32537109 50.61736328 252.32537109 49.21875 251.22265625 C8.53890845 218.57402806 -17.20127375 174.38987928 -23.53778076 122.34611511 C-24.10605249 117.11182997 -24.16671751 111.91841771 -24.17285156 106.6574707 C-24.17781647 105.62216217 -24.18278137 104.58685364 -24.18789673 103.52017212 C-24.20240326 100.12411823 -24.20929808 96.72811092 -24.21484375 93.33203125 C-24.22060106 90.96030172 -24.22635871 88.58857218 -24.2321167 86.21684265 C-24.24259133 81.25841049 -24.2484583 76.29999439 -24.25195312 71.34155273 C-24.25745566 64.98958593 -24.28153613 58.63783154 -24.30992508 52.28593159 C-24.3285405 47.39346185 -24.3337563 42.50104366 -24.335289 37.60854149 C-24.33831433 35.26618465 -24.34633878 32.92382869 -24.35947418 30.58150673 C-24.3765247 27.30978692 -24.37465759 24.03859189 -24.36816406 20.7668457 C-24.37737885 19.80202774 -24.38659363 18.83720978 -24.39608765 17.84315491 C-24.35886753 11.85791815 -23.76393747 7.19741521 -19.35546875 2.7265625 C-13.23296676 -1.24268667 -7.06129699 -2.08411096 0 0 Z " fill="#013D6C" transform="translate(336.01171875,416.59375)"/>
<path d="M0 0 C4.9722419 0.6762249 9.22516176 2.69167026 13.75 4.75 C14.61761963 5.14413086 15.48523926 5.53826172 16.37915039 5.94433594 C42.16120674 17.82588747 66.34953548 31.88655839 89 49 C89.62455078 49.47147461 90.24910156 49.94294922 90.89257812 50.42871094 C99.69791287 57.12057537 108.07517192 64.273068 116.37451172 71.57861328 C117.8120326 72.83563439 119.26616354 74.07360495 120.72265625 75.30859375 C121.45355469 75.92863281 122.18445313 76.54867187 122.9375 77.1875 C123.54464844 77.69667969 124.15179687 78.20585937 124.77734375 78.73046875 C126 80 126 80 126 82 C126.55558594 82.21914062 127.11117187 82.43828125 127.68359375 82.6640625 C130.76646839 84.44204417 132.6956908 86.71887539 135.0625 89.375 C136.0426267 90.46905652 137.02310517 91.56279801 138.00390625 92.65625 C138.75051514 93.49349609 138.75051514 93.49349609 139.51220703 94.34765625 C140.91567701 95.90635084 142.33972698 97.44157006 143.77734375 98.96875 C150.65315559 106.30821055 156.93130563 113.98311682 163 122 C163.45375 122.59683594 163.9075 123.19367188 164.375 123.80859375 C177.10976168 140.63150336 187.96057629 158.45035868 198 177 C198.48694336 177.88929199 198.97388672 178.77858398 199.47558594 179.69482422 C203.37971711 187.08884412 203.74837407 192.72027873 203 201 C202.93280762 201.75732422 202.86561523 202.51464844 202.79638672 203.29492188 C200.4166178 227.70832131 194.13850825 251.90572124 186 275 C185.72188477 275.79825195 185.44376953 276.59650391 185.15722656 277.41894531 C170.03080054 320.25656019 136.2031063 358.05195831 96 379 C92.4765625 380.3046875 92.4765625 380.3046875 90 381 C90 382.98 90 384.96 90 387 C89.67 387 89.34 387 89 387 C88.99780016 386.08615508 88.99780016 386.08615508 88.99555588 385.15384865 C88.95842363 370.29574888 88.89932425 355.43785674 88.81609726 340.57995033 C88.77637215 333.39460526 88.74394669 326.20936867 88.72900391 319.02392578 C88.71595333 312.75743898 88.68890256 306.49119153 88.64538693 300.22483957 C88.62284781 296.91007339 88.60917372 293.59566383 88.60811615 290.28081131 C88.60574245 286.57047158 88.57862734 282.8610583 88.54589844 279.15087891 C88.5509288 278.06474304 88.55595917 276.97860718 88.56114197 275.85955811 C88.45077815 267.74104734 86.95168238 260.71068643 81.8125 254.25 C69.65162999 244.52130399 57.86592215 239.16716915 42.12402344 240.64404297 C36.8338031 241.53061093 32.46503218 244.17458619 28 247 C26.67159238 247.67642842 25.33900617 248.34480178 24 249 C23.98786972 247.65934731 23.98786972 247.65934731 23.97549438 246.29161072 C23.89705355 237.8049525 23.80962059 229.31844237 23.71247292 220.83197689 C23.66285363 216.47061686 23.61652533 212.10927712 23.578125 207.74780273 C23.54083205 203.52662837 23.49436329 199.30563969 23.44193649 195.08462715 C23.4236231 193.48660147 23.40843347 191.88853636 23.39665604 190.29044914 C23.25176667 171.28278916 20.96967617 152.87247754 13.98828125 135.05859375 C12.53112426 130.54889446 12.43074944 128.2664226 14.390625 123.90625 C15.00421875 122.7821875 15.6178125 121.658125 16.25 120.5 C28.40330371 97.2346681 31.17851247 67.17952777 23.64160156 42.01269531 C18.7843398 26.77553171 11.43338967 11.43338967 0 0 Z " fill="#F93936" transform="translate(647,148)"/>
<path d="M0 0 C86.13 0 172.26 0 261 0 C261 102.75912409 261 102.75912409 227 138 C226.27167969 138.79148437 225.54335938 139.58296875 224.79296875 140.3984375 C214.35832082 151.43322289 201.73272735 158.83355317 188 165 C186.95585938 165.47179687 185.91171875 165.94359375 184.8359375 166.4296875 C150.83560694 180.57452786 109.92195927 179.96226574 76 166 C59.67338358 159.00944874 45.67587406 149.36764612 33 137 C32.35804688 136.41992188 31.71609375 135.83984375 31.0546875 135.2421875 C13.26683714 118.77808414 4.22277307 95.2252519 0 72 C0 48.24 0 24.48 0 0 Z " fill="#003D6D" transform="translate(381,468)"/>
<path d="M0 0 C-0.27714844 0.60328125 -0.55429687 1.2065625 -0.83984375 1.828125 C-1.20207031 2.62734375 -1.56429687 3.4265625 -1.9375 4.25 C-2.29714844 5.03890625 -2.65679687 5.8278125 -3.02734375 6.640625 C-4.63032876 10.52899025 -5.12694952 13.86874142 -5.14717102 18.07173157 C-5.15432632 19.0957608 -5.16148163 20.11979004 -5.16885376 21.17485046 C-5.17154266 22.29317764 -5.17423157 23.41150482 -5.17700195 24.5637207 C-5.18685875 26.33797424 -5.18685875 26.33797424 -5.19691467 28.14807129 C-5.21666378 32.07396807 -5.22833185 35.99985136 -5.23828125 39.92578125 C-5.24233303 41.28607897 -5.24645008 42.64637649 -5.25063133 44.00667381 C-5.26969752 50.41553729 -5.28391182 56.82438933 -5.2922433 63.23327571 C-5.30194776 70.57397935 -5.32808044 77.91437596 -5.36874419 85.2549718 C-5.39923262 90.95982554 -5.41374359 96.66459315 -5.41702431 102.36952657 C-5.41934285 105.76021958 -5.42994396 109.15032926 -5.45348549 112.54097939 C-5.58734364 133.12126471 -4.02869705 152.81531871 2.125 172.5625 C2.50205078 173.83383789 2.50205078 173.83383789 2.88671875 175.13085938 C3.91839306 178.5850778 5.00177008 182.00513969 6.17578125 185.4140625 C7.28631579 188.89829883 7.16554186 190.50337443 6 194 C5.06063082 195.2801769 4.0740804 196.52608315 3.0625 197.75 C-23.33303598 229.95689884 -31.2405125 277.9068239 -27.71142578 318.30322266 C-24.7310489 345.93471675 -16.08080165 371.73174553 -4.03125 396.6640625 C-3 399 -3 399 -3 401 C-9.3373142 398.17165213 -14.61872741 393.31349022 -20 389 C-20.80147461 388.36167236 -20.80147461 388.36167236 -21.61914062 387.71044922 C-31.48259929 379.75947992 -40.40746781 370.8025148 -49.375 361.875 C-49.98086945 361.27439758 -50.58673889 360.67379517 -51.21096802 360.05499268 C-58.61244819 352.70324909 -65.56004749 345.22658257 -72 337 C-73.16074153 335.56322269 -74.32215659 334.12698916 -75.484375 332.69140625 C-112.97938636 285.56754518 -138.87855622 228.31862105 -150.9375 169.4375 C-151.14930908 168.40858643 -151.36111816 167.37967285 -151.5793457 166.31958008 C-154.34562119 152.0851067 -154.34562119 152.0851067 -151.69921875 147.984375 C-150.85810547 147.00210938 -150.85810547 147.00210938 -150 146 C-148.88056919 143.42672613 -147.82775376 140.86321843 -146.8125 138.25 C-136.3370108 112.10914885 -121.04064168 84.82500826 -100.36328125 65.33203125 C-98.82745082 63.90111417 -98.82745082 63.90111417 -97.1875 61.5625 C-96.795625 61.046875 -96.40375 60.53125 -96 60 C-95.34 60 -94.68 60 -94 60 C-93.66742188 59.16662109 -93.66742188 59.16662109 -93.328125 58.31640625 C-88.01535216 49.05030539 -76.10213383 41.71429586 -67.68310547 35.2890625 C-66.10383475 34.07952531 -64.53774279 32.85283563 -62.97265625 31.625 C-55.347314 25.72943338 -47.37434187 20.7382223 -39 16 C-38.00806641 15.43514893 -38.00806641 15.43514893 -36.99609375 14.85888672 C-28.58321209 10.11144411 -20.01763576 6.00320071 -11.0625 2.375 C-10.19149658 2.01978271 -9.32049316 1.66456543 -8.4230957 1.29858398 C-7.61445068 0.98091064 -6.80580566 0.6632373 -5.97265625 0.3359375 C-5.25343994 0.05282715 -4.53422363 -0.2302832 -3.79321289 -0.52197266 C-2 -1 -2 -1 0 0 Z " fill="#FE5A14" transform="translate(293,405)"/>
<path d="M0 0 C2.85588278 2.85588278 4.00293634 6.39904693 5.5625 10.0625 C17.82777008 38.09139144 35.31961253 64.27342947 59 84 C59.87269531 84.78375 60.74539063 85.5675 61.64453125 86.375 C91.5327259 112.99502316 127.42452719 128.09796781 166 137 C166 154.82 166 172.64 166 191 C139.25 191.3125 139.25 191.3125 130.87988281 191.38793945 C128.65428036 191.42026902 126.4286928 191.45364826 124.203125 191.48828125 C123.07696777 191.49452515 121.95081055 191.50076904 120.79052734 191.50720215 C104.25549926 191.80285447 90.47394797 196.82432052 78.47265625 208.359375 C66.69349784 220.93869741 62.06662022 234.15862809 61 251 C40.88315175 243.33129543 21.9216854 233.30875923 4.03173828 221.34033203 C2.17883201 220.11797497 0.30065546 218.95848631 -1.59765625 217.80859375 C-9.81843507 212.44012976 -12.9412639 206.18052842 -16.15820312 197.26708984 C-17.02463863 194.93364434 -17.9742262 192.65167187 -18.953125 190.36328125 C-39.21998871 142.62744039 -42.8405541 88.68981367 -23.44140625 40.0078125 C-17.43822118 25.51614846 -9.8069291 12.2412732 0 0 Z " fill="#009CD2" transform="translate(300,596)"/>
<path d="M0 0 C86.46 0 172.92 0 262 0 C262 16.17 262 32.34 262 49 C175.54 49 89.08 49 0 49 C0 32.83 0 16.66 0 0 Z " fill="#F83830" transform="translate(381,419)"/>
<path d="M0 0 C0.66 0.33 1.32 0.66 2 1 C-18.52959976 31.83174558 -41.62026954 61.91720056 -70 86 C-71.34578125 87.17949219 -71.34578125 87.17949219 -72.71875 88.3828125 C-96.49640486 109.08603665 -123.29577313 126.48138582 -151.9375 139.625 C-152.89188965 140.06352295 -153.8462793 140.5020459 -154.82958984 140.95385742 C-155.71984863 141.3532251 -156.61010742 141.75259277 -157.52734375 142.1640625 C-158.31874756 142.51936035 -159.11015137 142.8746582 -159.92553711 143.24072266 C-162 144 -162 144 -165 144 C-165.08636719 143.14019531 -165.17273438 142.28039062 -165.26171875 141.39453125 C-166.83404456 128.16679942 -170.74192504 117.568026 -179 107 C-180.1446875 105.39125 -180.1446875 105.39125 -181.3125 103.75 C-193.01945962 91.77078551 -212.1945941 86.81456277 -228.44372559 86.50720215 C-229.49999146 86.50095825 -230.55625732 86.49471436 -231.64453125 86.48828125 C-232.65366577 86.47164429 -233.66280029 86.45500732 -234.70251465 86.43786621 C-238.40563979 86.38083928 -242.10910601 86.34800901 -245.8125 86.3125 C-254.124375 86.209375 -262.43625 86.10625 -271 86 C-271 68.18 -271 50.36 -271 32 C-266.02074666 32.82987556 -262.51873419 33.84282672 -257.93359375 35.73046875 C-256.55798308 36.28964387 -255.18216098 36.84829904 -253.80615234 37.40649414 C-253.09303894 37.69783234 -252.37992554 37.98917053 -251.64520264 38.28933716 C-230.74097258 46.79383517 -210.36735805 52.6954965 -188 56 C-187.24219238 56.11859375 -186.48438477 56.2371875 -185.70361328 56.359375 C-129.40607384 65.00272581 -67.8171262 50.55049557 -21.62792969 17.29199219 C-14.1819223 11.79782083 -6.98816709 6.06486004 0 0 Z " fill="#0186C2" transform="translate(829,701)"/>
<path d="M0 0 C0.76165466 -0.00029205 1.52330933 -0.00058411 2.30804443 -0.00088501 C4.80785801 0.00050047 7.30736785 0.0160245 9.80712891 0.03173828 C11.54733111 0.0354712 13.28753542 0.03831685 15.02774048 0.04031372 C19.59472517 0.04792825 24.16158146 0.06755791 28.72851562 0.08972168 C33.3940253 0.11022718 38.05955585 0.11932548 42.72509766 0.12939453 C51.86968514 0.15080594 61.01417757 0.18491545 70.15869141 0.22705078 C70.66133186 2.88202342 71.15467561 5.5382009 71.64306641 8.19580078 C71.78405762 8.93540039 71.92504883 9.675 72.0703125 10.43701172 C73.3905055 17.69412053 73.69722088 24.8533395 73.15869141 32.22705078 C71.45225129 33.9334909 69.30087659 33.35910342 67.02401733 33.37368774 C66.2889798 33.37323456 65.55394226 33.37278137 64.79663086 33.37231445 C64.02583694 33.37567307 63.25504303 33.37903168 62.46089172 33.38249207 C59.89790254 33.39203504 57.33497853 33.39394722 54.77197266 33.39501953 C52.99415561 33.39823113 51.21633882 33.40159513 49.43852234 33.40510559 C45.70339343 33.41110617 41.96828769 33.41294468 38.2331543 33.41235352 C33.45263523 33.41225215 28.67226554 33.42587412 23.89178181 33.44312572 C20.21570661 33.45426253 16.53966723 33.45627216 12.86357689 33.45574379 C11.10177282 33.45692253 9.33996778 33.46133839 7.57818031 33.46907616 C5.10792345 33.47890456 2.63798694 33.4759862 0.16772461 33.4699707 C-0.55719177 33.47559021 -1.28210815 33.48120972 -2.0289917 33.48699951 C-8.84837484 33.44493105 -13.90096259 32.03016496 -18.84130859 27.22705078 C-21.52086443 21.71644478 -21.8586852 16.23034938 -20.84130859 10.22705078 C-18.49682998 5.92320964 -15.75975238 3.01194625 -11.19906616 1.14602661 C-7.40126087 0.10661528 -3.90125742 -0.03963372 0 0 Z " fill="#F83731" transform="translate(569.84130859375,302.77294921875)"/>
<path d="M0 0 C1.21497665 -0.00021904 1.21497665 -0.00021904 2.45449829 -0.0004425 C5.13286005 0.00025439 7.81115234 0.00803636 10.48950195 0.01586914 C12.34609438 0.01773411 14.2026873 0.01915764 16.0592804 0.02015686 C20.94684202 0.02397579 25.83437394 0.03380078 30.72192383 0.04486084 C35.70889891 0.05508835 40.69587878 0.05965736 45.68286133 0.06469727 C55.46868377 0.07542359 65.25447637 0.09301536 75.0402832 0.11352539 C75.0402832 10.67352539 75.0402832 21.23352539 75.0402832 32.11352539 C64.07857542 32.22660443 53.11725667 32.31828664 42.15509701 32.37258625 C37.06460289 32.39865083 31.9745294 32.43399167 26.88427734 32.49072266 C21.96944116 32.54515421 17.05500889 32.57496954 12.13989449 32.58791161 C10.26721401 32.59713148 8.39455499 32.61513608 6.52204704 32.64217567 C3.89344853 32.67861481 1.26650682 32.68346464 -1.36230469 32.68115234 C-2.13195053 32.69912872 -2.90159637 32.7171051 -3.69456482 32.73562622 C-9.58029629 32.67981346 -12.47746984 30.91243753 -16.9597168 27.11352539 C-20.28281479 22.55456451 -19.42056511 16.48528859 -18.9597168 11.11352539 C-17.33809489 6.33400818 -15.12366533 3.92419065 -10.9597168 1.11352539 C-7.26120367 -0.11931232 -3.85040576 -0.01808808 0 0 Z " fill="#F83631" transform="translate(567.959716796875,360.886474609375)"/>
<path d="M0 0 C10.71821805 -0.09042562 21.43618209 -0.16378785 32.15469551 -0.20724869 C37.13192052 -0.22810937 42.10887067 -0.25639938 47.0859375 -0.30175781 C51.89052908 -0.34526959 56.69485654 -0.36914854 61.49962997 -0.37950897 C63.33124829 -0.38689076 65.16285241 -0.40130579 66.99435806 -0.42292023 C69.56312365 -0.45202541 72.13080266 -0.45595308 74.69970703 -0.45410156 C75.83151649 -0.47567322 75.83151649 -0.47567322 76.9861908 -0.49768066 C82.14035986 -0.45757297 85.01766945 0.7758941 89 4 C92.89853908 8.43626861 93.4063795 12.62127472 93.34765625 18.359375 C92.78567711 22.62789073 90.92317071 25.87473354 88 29 C83.74106877 32.23301661 79.97697033 32.4140396 74.81323242 32.34057617 C74.00295593 32.34101425 73.19267944 32.34145233 72.35784912 32.34190369 C69.69014052 32.33982024 67.02306703 32.31651045 64.35546875 32.29296875 C62.50173791 32.28737121 60.64800262 32.28310186 58.79426575 32.28010559 C53.9230619 32.26866927 49.05212779 32.23921248 44.18103027 32.20599365 C39.20731251 32.17526665 34.23355102 32.16159463 29.25976562 32.14648438 C19.50637303 32.11434159 9.75325118 32.06158352 0 32 C0 21.44 0 10.88 0 0 Z " fill="#F83630" transform="translate(381,361)"/>
<path d="M0 0 C9.04998437 -0.04658189 18.09992672 -0.08199943 27.15000534 -0.10362434 C31.35346497 -0.11400935 35.55684187 -0.12807057 39.76025391 -0.15087891 C43.82569427 -0.17279758 47.89105565 -0.18460822 51.9565506 -0.18975449 C53.49848929 -0.19341642 55.04042424 -0.20056596 56.5823288 -0.21146011 C80.61037443 -0.3742938 80.61037443 -0.3742938 86.6875 4.5 C91.0148891 9.17825849 90.54970658 14.1350932 90.421875 20.26953125 C89.91330522 24.76660664 88.80485067 26.81755121 85.60546875 29.8984375 C81.71998166 32.56439214 77.54187777 32.13467257 73.0402832 32.11352539 C71.82530655 32.11374443 71.82530655 32.11374443 70.58578491 32.1139679 C67.90742315 32.113271 65.22913087 32.10548903 62.55078125 32.09765625 C60.69418882 32.09579128 58.8375959 32.09436775 56.98100281 32.09336853 C52.09344119 32.0895496 47.20590926 32.07972461 42.31835938 32.06866455 C37.33138429 32.05843704 32.34440442 32.05386803 27.35742188 32.04882812 C17.57160153 32.03810181 7.78580324 32.02103284 -2 32 C-2.05921154 28.72924585 -2.093994 25.45863348 -2.125 22.1875 C-2.14175781 21.27806641 -2.15851563 20.36863281 -2.17578125 19.43164062 C-2.22300375 12.74965743 -1.40472572 6.52872804 0 0 Z " fill="#F83730" transform="translate(383,303)"/>
<path d="M0 0 C0.79030106 -0.0049649 1.58060211 -0.00992981 2.39485168 -0.01504517 C5.02276466 -0.02970989 7.65061719 -0.03647742 10.27856445 -0.04199219 C12.10122175 -0.04774199 13.92387901 -0.05349974 15.74653625 -0.05926514 C19.57581871 -0.06978868 23.4050801 -0.07562185 27.234375 -0.07910156 C32.13602302 -0.08457611 37.03739182 -0.1085761 41.93895245 -0.13707352 C45.70767521 -0.15572333 49.4763312 -0.16090684 53.24509621 -0.16243744 C55.05156791 -0.16546137 56.85803851 -0.17348116 58.66446495 -0.18662262 C61.19709641 -0.20372522 63.72905257 -0.20179223 66.26171875 -0.1953125 C67.37714554 -0.20913467 67.37714554 -0.20913467 68.5151062 -0.22323608 C74.04391433 -0.17904494 78.00230171 1.13185503 82.2668457 4.66113281 C85.80670825 9.13253814 84.84434228 15.8004526 84.4543457 21.16113281 C83.1649337 25.02936883 82.26247522 26.560216 79.0168457 28.97363281 C74.1955669 31.20788397 69.8264136 31.30011795 64.56469727 31.2746582 C63.77407394 31.27480423 62.98345062 31.27495026 62.16886902 31.27510071 C59.56087481 31.27440517 56.95295241 31.26662957 54.3449707 31.25878906 C52.53464802 31.25692361 50.72432483 31.25550031 48.91400146 31.25450134 C44.15304161 31.2506862 39.39211234 31.24086447 34.63116455 31.22979736 C29.77144789 31.21956169 24.91172629 31.2149991 20.05200195 31.20996094 C10.51943644 31.19924131 0.98689362 31.18217691 -8.5456543 31.16113281 C-8.57031052 26.90698658 -8.58849328 22.65287783 -8.60058594 18.39868164 C-8.60562531 16.95043209 -8.61245683 15.50218764 -8.62109375 14.05395508 C-8.63317677 11.97638693 -8.63888641 9.89888584 -8.64331055 7.82128906 C-8.64854736 6.56968994 -8.65378418 5.31809082 -8.65917969 4.02856445 C-8.43964569 -1.51643953 -4.51875016 0.00670169 0 0 Z " fill="#F5382F" transform="translate(389.545654296875,501.8388671875)"/>
<path d="M0 0 C0.80052292 -0.00029205 1.60104584 -0.00058411 2.42582703 -0.00088501 C5.06093338 0.00050373 7.69575384 0.01604339 10.33081055 0.03173828 C12.16212306 0.03547003 13.99343758 0.03831624 15.82475281 0.04031372 C20.63670395 0.04793741 25.44853371 0.06757505 30.26043701 0.08972168 C35.17385211 0.11020734 40.08728689 0.11932126 45.00073242 0.12939453 C54.63555987 0.15082214 64.27026548 0.185994 73.9050293 0.22705078 C73.9050293 10.45705078 73.9050293 20.68705078 73.9050293 31.22705078 C63.31718911 31.2948725 52.72949361 31.34989346 42.14148521 31.3824873 C37.2248565 31.39813201 32.30838433 31.41934854 27.3918457 31.45336914 C22.64562062 31.48600508 17.89954596 31.50391279 13.15321732 31.51168251 C11.3439459 31.51721841 9.53468256 31.5280287 7.72547531 31.54424095 C5.18797878 31.56607161 2.65110097 31.56901537 0.11352539 31.56762695 C-0.63166351 31.57841278 -1.37685242 31.58919861 -2.1446228 31.60031128 C-8.16119477 31.56477419 -12.16064921 30.11046908 -16.4699707 25.91455078 C-19.56007596 20.73829851 -18.8839669 13.96767828 -18.0949707 8.22705078 C-16.54688368 4.69944264 -14.36431157 2.8860051 -10.92512512 1.10061646 C-7.26097787 -0.03037245 -3.79452991 -0.03643876 0 0 Z " fill="#F53830" transform="translate(568.094970703125,501.77294921875)"/>
<path d="M0 0 C1.32 0 2.64 0 4 0 C4 17.82 4 35.64 4 54 C-16.13 54.33 -36.26 54.66 -57 55 C-49.88912133 51.44456066 -42.59775563 51.86255828 -34.81640625 51.90234375 C-33.87986206 51.90335083 -32.94331787 51.90435791 -31.97839355 51.90539551 C-28.50641644 51.91059623 -25.03445689 51.92455733 -21.5625 51.9375 C-13.786875 51.958125 -6.01125 51.97875 2 52 C2 35.17 2 18.34 2 1 C1.34 0.67 0.68 0.34 0 0 Z " fill="#1F99D0" transform="translate(462,733)"/>
<path d="M0 0 C0.33 0 0.66 0 1 0 C1.02886751 4.14581887 1.04675327 8.29161216 1.0625 12.4375 C1.07087891 13.62150391 1.07925781 14.80550781 1.08789062 16.02539062 C1.09111328 17.15009766 1.09433594 18.27480469 1.09765625 19.43359375 C1.10289307 20.47572021 1.10812988 21.51784668 1.11352539 22.59155273 C1 25 1 25 0 26 C-0.15873955 28.21687994 -0.25133837 30.43855298 -0.31640625 32.66015625 C-0.33718735 33.32462265 -0.35796844 33.98908905 -0.37937927 34.6736908 C-0.44493658 36.80318543 -0.50378785 38.93280668 -0.5625 41.0625 C-0.60567939 42.50326847 -0.64929349 43.94402399 -0.69335938 45.38476562 C-0.80062393 48.9230404 -0.90187371 52.46145869 -1 56 C-1.33 56 -1.66 56 -2 56 C-2.18990235 24.64566089 -2.18990235 24.64566089 -1.5625 12.25 C-1.50364624 11.05745605 -1.50364624 11.05745605 -1.44360352 9.84082031 C-1.24697742 6.43967946 -0.8898494 3.28434502 0 0 Z " fill="#F7FBFA" transform="translate(381,336)"/>
<path d="M0 0 C2.39763185 2.39763185 2.34280586 3.33273498 2.625 6.625 C2.69976562 7.44226563 2.77453125 8.25953125 2.8515625 9.1015625 C2.92503906 10.04128906 2.92503906 10.04128906 3 11 C1.35 11.33 -0.3 11.66 -2 12 C-2.185625 11.071875 -2.185625 11.071875 -2.375 10.125 C-2.87197356 7.80879168 -2.87197356 7.80879168 -5 6 C-3.35 4.02 -1.7 2.04 0 0 Z " fill="#0299D3" transform="translate(300,596)"/>
<path d="M0 0 C2.44563312 2.44563312 3.34131255 4.75525172 4.6875 7.9375 C5.14511719 8.99839844 5.60273437 10.05929687 6.07421875 11.15234375 C7 14 7 14 6 17 C5.34 16.34 4.68 15.68 4 15 C3.01 15.66 2.02 16.32 1 17 C0.67 11.39 0.34 5.78 0 0 Z " fill="#9F2891" transform="translate(850,337)"/>
<path d="M0 0 C0.28875 0.598125 0.5775 1.19625 0.875 1.8125 C2.04742026 4.19327792 2.04742026 4.19327792 4 7 C4.125 9.6875 4.125 9.6875 4 12 C5.32 11.67 6.64 11.34 8 11 C7.67 13.64 7.34 16.28 7 19 C6.34 19 5.68 19 5 19 C4.15665671 16.77417611 3.32521449 14.54503974 2.5 12.3125 C2.14228516 11.37374023 2.14228516 11.37374023 1.77734375 10.41601562 C0.4587275 6.81807701 -0.29329235 3.83479747 0 0 Z M3 3 C3.66 3.66 4.32 4.32 5 5 C4.34 5 3.68 5 3 5 C3 4.34 3 3.68 3 3 Z " fill="#06A0DE" transform="translate(272,757)"/>
<path d="M0 0 C1.57554035 2.88628401 2.46276373 5.53342384 3.125 8.75 C3.29257812 9.54921875 3.46015625 10.3484375 3.6328125 11.171875 C3.81457031 12.07679688 3.81457031 12.07679688 4 13 C3.01 13 2.02 13 1 13 C0.67 11.35 0.34 9.7 0 8 C-0.66 8 -1.32 8 -2 8 C-2.66 6.35 -3.32 4.7 -4 3 C-2.68 2.01 -1.36 1.02 0 0 Z " fill="#ED5918" transform="translate(268,747)"/>
<path d="M0 0 C0.66 0.33 1.32 0.66 2 1 C2.625 3.0625 2.625 3.0625 3 5 C3.33 4.34 3.66 3.68 4 3 C4.66 3.33 5.32 3.66 6 4 C5.01 6.97 4.02 9.94 3 13 C2.01 12.67 1.02 12.34 0 12 C-0.19477739 10.37585622 -0.38059458 8.75063577 -0.5625 7.125 C-0.66691406 6.22007812 -0.77132812 5.31515625 -0.87890625 4.3828125 C-1 2 -1 2 0 0 Z " fill="#FD7D0D" transform="translate(139,544)"/>
<path d="M0 0 C3.55780196 0.60990891 6.6828589 1.5783681 10 3 C10 3.99 10 4.98 10 6 C8.02 6.99 8.02 6.99 6 8 C5.38125 7.05125 4.7625 6.1025 4.125 5.125 C2.18029031 2.05554891 2.18029031 2.05554891 0 0 Z " fill="#FD5524" transform="translate(647,148)"/>
<path d="M0 0 C2.6855594 2.6855594 3.06049974 5.37621328 4 9 C1.50638429 7.79618552 -0.68143083 6.54571278 -3 5 C-2.67 4.01 -2.34 3.02 -2 2 C-1.34 2 -0.68 2 0 2 C0 1.34 0 0.68 0 0 Z " fill="#F35817" transform="translate(286,797)"/>
<path d="M0 0 C0.66 0 1.32 0 2 0 C1.690625 0.53625 1.38125 1.0725 1.0625 1.625 C-0.17827439 4.3984957 -0.5909675 7.00042837 -1 10 C-2.32 10.33 -3.64 10.66 -5 11 C-3.78065514 6.96678237 -2.44045073 3.45730521 0 0 Z " fill="#119ED7" transform="translate(283,623)"/>
<path d="M0 0 C2.39223697 2.39223697 2.6758631 3.67759676 3 7 C2.01 8.485 2.01 8.485 1 10 C1 8.68 1 7.36 1 6 C0.01 5.67 -0.98 5.34 -2 5 C-1.67 4.01 -1.34 3.02 -1 2 C-1.66 1.67 -2.32 1.34 -3 1 C-2.01 0.67 -1.02 0.34 0 0 Z " fill="#EE5516" transform="translate(276,774)"/>
<path d="M0 0 C0.99 0.33 1.98 0.66 3 1 C3.33 1.99 3.66 2.98 4 4 C3.01 4.33 2.02 4.66 1 5 C0.01 5.66 -0.98 6.32 -2 7 C-2.33 6.01 -2.66 5.02 -3 4 C-1.5625 1.8125 -1.5625 1.8125 0 0 Z " fill="#05A0DD" transform="translate(295,603)"/>
<path d="M0 0 C4.94151304 2.40016348 7.04331244 5.52273027 10 10 C8.0625 9.6875 8.0625 9.6875 6 9 C5.67 8.01 5.34 7.02 5 6 C4.01 5.34 3.02 4.68 2 4 C2 3.34 2 2.68 2 2 C1.34 2 0.68 2 0 2 C0 1.34 0 0.68 0 0 Z " fill="#FB2E2D" transform="translate(772,229)"/>
<path d="M0 0 C1.32 0.33 2.64 0.66 4 1 C0.7 3.31 -2.6 5.62 -6 8 C-6.66 7.67 -7.32 7.34 -8 7 C-7.50628906 6.66226563 -7.01257813 6.32453125 -6.50390625 5.9765625 C-5.86324219 5.53054688 -5.22257813 5.08453125 -4.5625 4.625 C-3.92441406 4.18414063 -3.28632812 3.74328125 -2.62890625 3.2890625 C-0.86259072 2.07839147 -0.86259072 2.07839147 0 0 Z " fill="#C12595" transform="translate(800,720)"/>
<path d="M0 0 C3.65392651 1.2179755 3.95831699 2.14396506 5.75 5.4375 C6.19859375 6.24058594 6.6471875 7.04367188 7.109375 7.87109375 C7.40328125 8.57363281 7.6971875 9.27617187 8 10 C7.67 10.66 7.34 11.32 7 12 C5.82767315 10.3790787 4.6622923 8.75313167 3.5 7.125 C2.8503125 6.22007812 2.200625 5.31515625 1.53125 4.3828125 C0 2 0 2 0 0 Z " fill="#F8313F" transform="translate(654,155)"/>
<path d="M0 0 C1 2 1 2 0.25 5.5625 C-0.1625 6.696875 -0.575 7.83125 -1 9 C-1.99 9.33 -2.98 9.66 -4 10 C-3.52449439 8.51965236 -3.04448784 7.04074979 -2.5625 5.5625 C-2.29566406 4.73878906 -2.02882813 3.91507813 -1.75390625 3.06640625 C-1 1 -1 1 0 0 Z " fill="#EAEDEC" transform="translate(635,566)"/>
<path d="M0 0 C-0.99 0.495 -0.99 0.495 -2 1 C-2.33 1.66 -2.66 2.32 -3 3 C-3.99 2.67 -4.98 2.34 -6 2 C-6 2.66 -6 3.32 -6 4 C-7.65 3.67 -9.3 3.34 -11 3 C-7.72430636 -0.27569364 -4.48909309 -0.12469703 0 0 Z " fill="#942590" transform="translate(574,730)"/>
<path d="M0 0 C0 4.31618166 -2.13270348 5.92789659 -5 9 C-5.66 9 -6.32 9 -7 9 C-5.44499019 5.18315774 -2.96404505 2.80804268 0 0 Z " fill="#992091" transform="translate(686,657)"/>
<path d="M0 0 C0.33 0 0.66 0 1 0 C1.33 3.3 1.66 6.6 2 10 C1.34 10 0.68 10 0 10 C-1.60339848 6.88228073 -2.18974141 5.60988311 -1.125 2.1875 C-0.75375 1.465625 -0.3825 0.74375 0 0 Z " fill="#E8571A" transform="translate(266,735)"/>
<path d="M0 0 C2.31 0 4.62 0 7 0 C4.04816899 2.95183101 1.04488053 3.08663988 -3 4 C-3 3.34 -3 2.68 -3 2 C-2.01 2 -1.02 2 0 2 C0 1.34 0 0.68 0 0 Z " fill="#F3E6E9" transform="translate(590,721)"/>
<path d="M0 0 C0.66 1.32 1.32 2.64 2 4 C1.34 4.66 0.68 5.32 0 6 C-1.66666667 6 -3.33333333 6 -5 6 C-3.35 4.02 -1.7 2.04 0 0 Z " fill="#1E92CD" transform="translate(300,596)"/>
<path d="M0 0 C3.37462715 0.54723683 5.08235 1.0549 8 3 C7.34 3.66 6.68 4.32 6 5 C5.01 5 4.02 5 3 5 C3 4.34 3 3.68 3 3 C1.54166642 1.37485532 1.54166642 1.37485532 0 0 Z " fill="#FA3725" transform="translate(656,152)"/>
</svg>
